<svg width="26" height="26" viewBox="0 0 26 26" fill="none" xmlns="http://www.w3.org/2000/svg">
<path fill-rule="evenodd" clip-rule="evenodd" d="M12.9365 0C5.79237 0 0 5.8208 0 13C0 20.1792 5.79237 26 12.9365 26C20.0822 26 25.873 20.1792 25.873 13C25.873 5.8208 20.0822 0 12.9365 0ZM16.4643 18.0194C15.8279 18.7367 14.9089 19.1589 13.7071 19.2858V21.125H12.1753V19.2953C10.1714 19.089 8.9317 17.9179 8.45325 15.785L10.822 15.1646C11.0415 16.5055 11.7679 17.1752 13.0012 17.1752C13.5776 17.1752 14.004 17.0324 14.2756 16.7451C14.5473 16.4578 14.683 16.1119 14.683 15.7057C14.683 15.2852 14.5472 14.9661 14.2756 14.7503C14.004 14.533 13.3992 14.2584 12.4628 13.9251C11.6211 13.6316 10.9625 13.3427 10.4888 13.054C10.015 12.7683 9.62971 12.3669 9.3344 11.8511C9.03908 11.3337 8.89066 10.7307 8.89066 10.0451C8.89066 9.14535 9.15596 8.33442 9.68343 7.61399C10.2109 6.89513 11.0415 6.45552 12.1754 6.29525V4.875H13.7072V6.2953C15.419 6.50162 16.5276 7.47439 17.0313 9.21522L14.9216 10.0849C14.5094 8.89149 13.8745 8.29481 13.0124 8.29481C12.5796 8.29481 12.2322 8.42811 11.9717 8.69471C11.7095 8.96132 11.5785 9.28505 11.5785 9.66433C11.5785 10.0515 11.7048 10.3483 11.9575 10.5562C12.2086 10.7625 12.7502 11.018 13.5777 11.3243C14.4873 11.6575 15.2011 11.9733 15.7175 12.2701C16.2355 12.5668 16.6476 12.9779 16.9571 13.4999C17.2651 14.0236 17.4198 14.6346 17.4198 15.3345C17.4198 16.4087 17.1007 17.3037 16.4643 18.0194Z" fill="#FFCA50"/>
</svg>
