<svg width="26" height="26" viewBox="0 0 26 26" fill="none" xmlns="http://www.w3.org/2000/svg">
<path fill-rule="evenodd" clip-rule="evenodd" d="M13.0635 0C5.91939 0 0.127014 5.8208 0.127014 13C0.127014 20.1792 5.91939 26 13.0635 26C20.2092 26 26 20.1792 26 13C26 5.8208 20.2092 0 13.0635 0ZM16.5913 18.0194C15.9549 18.7367 15.0359 19.1589 13.8342 19.2858V21.125H12.3023V19.2953C10.2984 19.089 9.05871 17.9179 8.58026 15.785L10.949 15.1646C11.1685 16.5055 11.8949 17.1752 13.1283 17.1752C13.7046 17.1752 14.131 17.0324 14.4027 16.7451C14.6743 16.4578 14.81 16.1119 14.81 15.7057C14.81 15.2852 14.6742 14.9661 14.4027 14.7503C14.131 14.533 13.5262 14.2584 12.5898 13.9251C11.7481 13.6316 11.0895 13.3427 10.6158 13.054C10.142 12.7683 9.75673 12.3669 9.46141 11.8511C9.16609 11.3337 9.01768 10.7307 9.01768 10.0451C9.01768 9.14535 9.28298 8.33442 9.81044 7.61399C10.3379 6.89513 11.1685 6.45552 12.3024 6.29525V4.875H13.8342V6.2953C15.546 6.50162 16.6546 7.47439 17.1583 9.21522L15.0486 10.0849C14.6364 8.89149 14.0015 8.29481 13.1394 8.29481C12.7067 8.29481 12.3592 8.42811 12.0987 8.69471C11.8365 8.96132 11.7055 9.28505 11.7055 9.66433C11.7055 10.0515 11.8318 10.3483 12.0845 10.5562C12.3356 10.7625 12.8773 11.018 13.7047 11.3243C14.6143 11.6575 15.3281 11.9733 15.8445 12.2701C16.3625 12.5668 16.7746 12.9779 17.0841 13.4999C17.3921 14.0236 17.5468 14.6346 17.5468 15.3345C17.5468 16.4087 17.2278 17.3037 16.5913 18.0194Z" fill="#EAEFFF"/>
</svg>
