<svg width="93" height="42" viewBox="0 0 93 42" fill="none" xmlns="http://www.w3.org/2000/svg">
<path fill-rule="evenodd" clip-rule="evenodd" d="M31.2801 0H38.6835V13.9091C36.2512 16.0553 33.7834 18.1606 31.2801 20.2252V0ZM28.8949 22.1473V5.94741H21.4898V27.8182L21.6311 27.716C24.1011 25.9363 26.5113 24.0594 28.8949 22.1473ZM19.1145 12.0205H11.7012V34.1494C14.3208 32.8909 16.7393 31.2486 19.1062 29.5494L19.1145 12.0205ZM54.4361 1.56017C50.336 5.53851 46.1528 9.42804 41.8865 13.2288C35.3774 19.0521 28.712 24.7549 21.6344 29.8711C21.3235 30.096 21.0126 30.3219 20.7014 30.548L20.7008 30.5485C17.3607 32.9754 13.9864 35.4273 10.1504 36.9832C7.65707 37.9887 3.98695 38.7595 2.45774 35.8772C1.88594 34.8013 1.89924 33.4858 2.23168 32.3111C3.25635 28.6737 6.15666 25.8625 8.82652 23.2747C9.158 22.9534 9.48593 22.6355 9.80628 22.32C9.80628 22.32 5.04909 25.3682 2.44278 28.8857C0.474742 31.5419 -0.845037 35.1415 0.63265 38.1026C3.73263 44.3165 12.3627 41.7123 17.2163 39.7248C18.2003 39.3209 20.0038 38.3372 21.4898 37.4675V38.7109H28.8949V32.3597C29.6805 31.7664 30.4756 31.1553 31.2801 30.5263V38.7109H38.6835V24.5102C46.0204 18.3517 52.1755 12.6841 52.1755 12.6841L54.0571 15.1526L54.9992 1.0108C55.0001 1.00837 55.0003 1.00658 54.9996 1.00548L54.9992 1.0108C54.9797 1.06245 54.6073 1.40331 54.4782 1.5214L54.4779 1.5217C54.4556 1.54216 54.4406 1.55588 54.4361 1.56017ZM90.7066 19.8223C90.7066 19.2741 91.0312 19 91.6803 19C92.3294 19 92.6539 19.2741 92.6539 19.8223C92.6539 20.0835 92.5718 20.2877 92.4076 20.4349C92.2473 20.5784 92.0048 20.6501 91.6803 20.6501C91.0312 20.6501 90.7066 20.3742 90.7066 19.8223ZM92.5718 27.5872H90.7828V21.4172H92.5718V27.5872ZM66.1537 26.5276C66.9592 25.8212 67.362 24.8039 67.362 23.4757C67.362 22.2285 66.9748 21.2572 66.2006 20.5618C65.4264 19.8664 64.3393 19.5188 62.9394 19.5188H60.2471V27.5872H62.6754C64.1927 27.5872 65.3521 27.234 66.1537 26.5276ZM63.0332 20.9205C64.6599 20.9205 65.4733 21.787 65.4733 23.5199C65.4733 25.2896 64.5974 26.1744 62.8455 26.1744H62.0654V20.9205H63.0332ZM70.8226 22.8411C71.0377 22.613 71.3349 22.4989 71.7142 22.4989C72.0935 22.4989 72.3946 22.613 72.6174 22.8411C72.8403 23.0655 72.9557 23.3856 72.9635 23.8013H70.4531C70.4844 23.3856 70.6075 23.0655 70.8226 22.8411ZM69.4911 26.8753C70.0855 27.4235 70.9106 27.6976 71.9664 27.6976C72.4786 27.6976 72.9127 27.6608 73.2685 27.5872C73.6243 27.5173 73.9587 27.4088 74.2715 27.2616V25.9592C73.8883 26.1284 73.5207 26.2517 73.1688 26.3289C72.8169 26.4062 72.4434 26.4448 72.0485 26.4448C71.5401 26.4448 71.1452 26.3105 70.8637 26.0419C70.5821 25.7734 70.4316 25.3999 70.412 24.9216H74.641V24.1049C74.641 23.2292 74.383 22.543 73.8668 22.0464C73.3506 21.5497 72.6292 21.3013 71.7024 21.3013C70.7327 21.3013 69.9721 21.5846 69.4208 22.1512C68.8733 22.7141 68.5996 23.5125 68.5996 24.5464C68.5996 25.5508 68.8968 26.3271 69.4911 26.8753ZM82.1488 27.5872H80.3599V23.9834C80.3599 23.5383 80.2758 23.2053 80.1077 22.9845C79.9395 22.7601 79.6717 22.6479 79.3041 22.6479C78.8036 22.6479 78.4419 22.8061 78.219 23.1225C77.9961 23.4352 77.8846 23.9559 77.8846 24.6843V27.5872H76.0957V21.4172H77.4623L77.7028 22.2064H77.8025C78.002 21.9084 78.2757 21.684 78.6237 21.5331C78.9756 21.3786 79.3745 21.3013 79.8203 21.3013C80.5828 21.3013 81.1615 21.4963 81.5564 21.8863C81.9514 22.2726 82.1488 22.8319 82.1488 23.564V27.5872ZM89.6977 22.2726V21.4172H87.4102C87.3398 21.4025 87.1775 21.3804 86.9234 21.351C86.6731 21.3179 86.4561 21.3013 86.2723 21.3013C85.4081 21.3013 84.7434 21.4853 84.278 21.8532C83.8127 22.2211 83.58 22.7417 83.58 23.415C83.58 23.8344 83.6797 24.1987 83.8792 24.5077C84.0825 24.8168 84.3562 25.0412 84.7003 25.181C84.4266 25.3319 84.2174 25.4864 84.0727 25.6446C83.928 25.7991 83.8557 25.9941 83.8557 26.2296C83.8557 26.4172 83.9241 26.5957 84.061 26.7649C84.1979 26.9305 84.3582 27.05 84.542 27.1236C84.0649 27.2303 83.7032 27.4088 83.4569 27.6589C83.2105 27.9091 83.0873 28.22 83.0873 28.5916C83.0873 29.1325 83.3278 29.5519 83.8088 29.8499C84.2937 30.1516 84.9936 30.3024 85.9086 30.3024C87.1052 30.3024 88.0222 30.1038 88.6595 29.7064C89.3008 29.3091 89.6215 28.7498 89.6215 28.0287C89.6215 27.4658 89.4318 27.039 89.0525 26.7483C88.6771 26.4577 88.1297 26.3124 87.4102 26.3124H86.2958C85.6388 26.3124 85.3103 26.1909 85.3103 25.9481C85.3103 25.7862 85.4022 25.6391 85.586 25.5066L85.85 25.5342L86.1726 25.5508C87.0446 25.5508 87.725 25.3668 88.2138 24.9989C88.7065 24.6273 88.9528 24.1104 88.9528 23.4481C88.9528 23.106 88.859 22.7969 88.6713 22.521L89.6977 22.2726ZM84.9877 29.0055C84.7531 28.8731 84.6358 28.6909 84.6358 28.4592C84.6358 28.22 84.7453 28.0269 84.9643 27.8797C85.1872 27.7362 85.4629 27.6645 85.7913 27.6645H86.7181C87.1678 27.6645 87.5001 27.7086 87.7152 27.7969C87.9303 27.8852 88.0378 28.0453 88.0378 28.277C88.0378 28.564 87.856 28.7903 87.4923 28.9559C87.1286 29.1214 86.6262 29.2042 85.9849 29.2042C85.5587 29.2042 85.2263 29.138 84.9877 29.0055ZM85.5274 24.2318C85.3671 24.0368 85.2869 23.7719 85.2869 23.4371C85.2869 22.6939 85.6154 22.3223 86.2723 22.3223C86.9214 22.3223 87.246 22.6939 87.246 23.4371C87.246 23.7719 87.1678 24.0368 87.0113 24.2318C86.8549 24.4268 86.6086 24.5243 86.2723 24.5243C85.9399 24.5243 85.6916 24.4268 85.5274 24.2318ZM48 38.8896H49.789V35.6998H52.6983V34.3035H49.789V32.223H52.9153V30.8212H48V38.8896ZM54.3758 31.1247C54.3758 30.5765 54.7003 30.3024 55.3495 30.3024C55.9986 30.3024 56.3231 30.5765 56.3231 31.1247C56.3231 31.3859 56.241 31.5901 56.0768 31.7373C55.9165 31.8808 55.674 31.9525 55.3495 31.9525C54.7003 31.9525 54.3758 31.6766 54.3758 31.1247ZM56.241 38.8896H54.452V32.7196H56.241V38.8896ZM62.388 38.8896H64.177V34.8664C64.177 34.1343 63.9795 33.5751 63.5846 33.1887C63.1897 32.7987 62.6109 32.6038 61.8484 32.6038C61.4026 32.6038 61.0038 32.681 60.6519 32.8355C60.3038 32.9864 60.0301 33.2108 59.8307 33.5088H59.731L59.4905 32.7196H58.1238V38.8896H59.9128V35.9868C59.9128 35.2583 60.0242 34.7377 60.2471 34.4249C60.47 34.1085 60.8317 33.9503 61.3322 33.9503C61.6998 33.9503 61.9677 34.0625 62.1358 34.287C62.304 34.5077 62.388 34.8407 62.388 35.2859V38.8896ZM70.1833 38.8896L69.8372 38.0508H69.7903C69.4892 38.4077 69.1783 38.656 68.8577 38.7958C68.5409 38.9319 68.1264 39 67.6142 39C66.9846 39 66.488 38.8308 66.1244 38.4923C65.7646 38.1538 65.5847 37.6718 65.5847 37.0464C65.5847 36.3915 65.8272 35.9095 66.312 35.6004C66.8008 35.2877 67.536 35.1148 68.5175 35.0817L69.6554 35.0486V34.7781C69.6554 34.1527 69.3152 33.84 68.6348 33.84C68.1108 33.84 67.4949 33.989 66.7871 34.287L66.1947 33.1501C66.9494 32.7785 67.7862 32.5927 68.7052 32.5927C69.585 32.5927 70.2595 32.773 70.7288 33.1336C71.198 33.4941 71.4326 34.0423 71.4326 34.7781V38.8896H70.1833ZM69.6554 36.0309L68.9632 36.053C68.4432 36.0677 68.056 36.156 67.8019 36.3179C67.5477 36.4798 67.4206 36.7263 67.4206 37.0574C67.4206 37.532 67.71 37.7693 68.2887 37.7693C68.7032 37.7693 69.0336 37.6571 69.28 37.4327C69.5302 37.2082 69.6554 36.9102 69.6554 36.5386V36.0309ZM77.5444 38.8896H79.3334V34.8664C79.3334 34.1343 79.1359 33.5751 78.741 33.1887C78.3461 32.7987 77.7673 32.6038 77.0048 32.6038C76.559 32.6038 76.1602 32.681 75.8083 32.8355C75.4602 32.9864 75.1865 33.2108 74.9871 33.5088H74.8874L74.6469 32.7196H73.2802V38.8896H75.0692V35.9868C75.0692 35.2583 75.1807 34.7377 75.4035 34.4249C75.6264 34.1085 75.9881 33.9503 76.4887 33.9503C76.8562 33.9503 77.1241 34.0625 77.2922 34.287C77.4604 34.5077 77.5444 34.8407 77.5444 35.2859V38.8896ZM83.8381 39C81.7969 39 80.7763 37.9459 80.7763 35.8377C80.7763 34.7892 81.054 33.989 81.6092 33.4371C82.1645 32.8815 82.9602 32.6038 83.9965 32.6038C84.7551 32.6038 85.4355 32.7436 86.0377 33.0232L85.5098 34.3256C85.2282 34.2189 84.9662 34.1325 84.7238 34.0662C84.4814 33.9963 84.2389 33.9614 83.9965 33.9614C83.0658 33.9614 82.6005 34.5831 82.6005 35.8267C82.6005 37.0335 83.0658 37.6369 83.9965 37.6369C84.3406 37.6369 84.6593 37.5946 84.9526 37.5099C85.2458 37.4216 85.5391 37.2855 85.8324 37.1015V38.5419C85.543 38.7149 85.2497 38.8344 84.9526 38.9007C84.6593 38.9669 84.2878 39 83.8381 39ZM89.1816 34.1435C89.3966 33.9154 89.6938 33.8013 90.0731 33.8013C90.4524 33.8013 90.7535 33.9154 90.9764 34.1435C91.1993 34.3679 91.3147 34.688 91.3225 35.1038H88.812C88.8433 34.688 88.9665 34.3679 89.1816 34.1435ZM87.8501 38.1777C88.4445 38.7259 89.2696 39 90.3253 39C90.8376 39 91.2716 38.9632 91.6275 38.8896C91.9833 38.8197 92.3177 38.7112 92.6305 38.564V37.2616C92.2473 37.4308 91.8797 37.5541 91.5278 37.6313C91.1758 37.7086 90.8024 37.7472 90.4075 37.7472C89.8991 37.7472 89.5042 37.6129 89.2226 37.3444C88.9411 37.0758 88.7905 36.7024 88.771 36.2241H93V35.4073C93 34.5316 92.7419 33.8455 92.2258 33.3488C91.7096 32.8521 90.9881 32.6038 90.0614 32.6038C89.0916 32.6038 88.3311 32.8871 87.7797 33.4536C87.2323 34.0166 86.9585 34.8149 86.9585 35.8488C86.9585 36.8532 87.2557 37.6295 87.8501 38.1777Z" fill="url(#paint0_linear_89_412)"/>
<defs>
<linearGradient id="paint0_linear_89_412" x1="99.9123" y1="4.80467" x2="70.3641" y2="71.6359" gradientUnits="userSpaceOnUse">
<stop stop-color="#35D5A5"/>
<stop offset="0.320833" stop-color="#00C7C5"/>
<stop offset="0.5776" stop-color="#2D9BE0"/>
<stop offset="0.7222" stop-color="#5277F7"/>
<stop offset="0.8013" stop-color="#5B75F6"/>
<stop offset="0.9292" stop-color="#7370F4"/>
<stop offset="1" stop-color="#836DF3"/>
</linearGradient>
</defs>
</svg>
